<svg width="238" height="95" viewBox="0 0 238 95" fill="none" xmlns="http://www.w3.org/2000/svg">
<path fill-rule="evenodd" clip-rule="evenodd" d="M9.72275 49.8689C11.2424 45.8664 14.0123 42.7052 17.4191 40.6612C17.2293 38.8678 17.1715 37.0516 17.2517 35.2265L7.47466 31.5144C7.57251 30.9179 7.73112 30.3224 7.95398 29.7354C9.7078 25.1161 14.7922 22.7381 19.4355 24.297C19.4938 24.1368 19.5533 23.9767 19.6141 23.8167C24.4314 11.1286 35.531 2.66787 48.0274 0.631012C56.0231 10.4482 58.7105 24.1435 53.8932 36.8316C53.8324 36.9917 53.7707 37.151 53.7079 37.3097C53.8244 37.3487 53.9407 37.3902 54.0566 37.4342C58.7895 39.2312 61.1696 44.5248 59.3726 49.2577C59.1498 49.8447 58.8731 50.3955 58.5505 50.9066L48.0878 46.9342C46.9366 48.3527 45.6879 49.6728 44.3558 50.8884C45.5475 54.6783 45.5215 58.8813 44.0019 62.8838C43.4662 64.2946 42.7752 65.6009 41.9557 66.7906C38.0681 62.1754 32.9849 58.4571 26.9432 56.1632C20.9015 53.8693 14.6314 53.277 8.66043 54.1493C8.83701 52.7155 9.18709 51.2797 9.72275 49.8689ZM47.5948 22.4303C46.1573 26.2167 41.9224 28.1207 38.136 26.6831C34.3497 25.2456 32.4456 21.0107 33.8832 17.2243C35.3208 13.438 39.5556 11.5339 43.342 12.9715C47.1284 14.4091 49.0324 18.6439 47.5948 22.4303Z" fill="white"/>
<path d="M12.3692 94.5568C12.4107 94.4422 12.4532 94.3276 12.4967 94.213C15.5875 86.0723 22.5438 81.1628 28.034 83.2473C30.4359 84.1592 32.1593 86.2587 33.0793 89.0137C34.2943 87.5251 35.294 85.8187 36.0135 83.9237C39.6075 74.4577 34.8474 63.8706 25.3814 60.2767C15.9155 56.6827 5.3284 61.4428 1.73444 70.9088C1.01494 72.8038 0.630262 74.7438 0.551132 76.6636C3.06779 75.2134 5.75027 74.7867 8.15216 75.6987C13.6424 77.7831 15.5875 86.0723 12.4967 94.213C12.4532 94.3276 12.4089 94.4415 12.3639 94.5548L12.3692 94.5568Z" fill="white"/>
<path d="M78.3453 30.95C83.5453 30.95 87.5287 31.8833 90.2953 33.75C93.062 35.5833 94.4453 38.45 94.4453 42.35C94.4453 44.7833 93.8787 46.7666 92.7453 48.3C91.6453 49.8 90.0453 50.9833 87.9453 51.85C88.6453 52.7166 89.3787 53.7166 90.1453 54.85C90.912 55.95 91.662 57.1166 92.3953 58.35C93.162 59.55 93.8953 60.8166 94.5953 62.15C95.2953 63.45 95.9453 64.7333 96.5453 66H87.7953C87.162 64.8666 86.512 63.7166 85.8453 62.55C85.212 61.3833 84.5453 60.25 83.8453 59.15C83.1787 58.05 82.512 57.0166 81.8453 56.05C81.1787 55.05 80.512 54.15 79.8453 53.35H75.9953V66H68.1953V31.85C69.8953 31.5166 71.6453 31.2833 73.4453 31.15C75.2787 31.0166 76.912 30.95 78.3453 30.95ZM78.7953 37.6C78.2287 37.6 77.712 37.6166 77.2453 37.65C76.812 37.6833 76.3953 37.7166 75.9953 37.75V47.15H78.1953C81.1287 47.15 83.2287 46.7833 84.4953 46.05C85.762 45.3166 86.3953 44.0666 86.3953 42.3C86.3953 40.6 85.7453 39.4 84.4453 38.7C83.1787 37.9666 81.2953 37.6 78.7953 37.6Z" fill="white"/>
<path d="M102.216 48.65C102.216 50.35 102.416 51.8833 102.816 53.25C103.249 54.6166 103.849 55.8 104.616 56.8C105.416 57.7666 106.383 58.5166 107.516 59.05C108.649 59.5833 109.949 59.85 111.416 59.85C112.849 59.85 114.133 59.5833 115.266 59.05C116.433 58.5166 117.399 57.7666 118.166 56.8C118.966 55.8 119.566 54.6166 119.966 53.25C120.399 51.8833 120.616 50.35 120.616 48.65C120.616 46.95 120.399 45.4166 119.966 44.05C119.566 42.65 118.966 41.4666 118.166 40.5C117.399 39.5 116.433 38.7333 115.266 38.2C114.133 37.6666 112.849 37.4 111.416 37.4C109.949 37.4 108.649 37.6833 107.516 38.25C106.383 38.7833 105.416 39.55 104.616 40.55C103.849 41.5166 103.249 42.7 102.816 44.1C102.416 45.4666 102.216 46.9833 102.216 48.65ZM128.666 48.65C128.666 51.6166 128.216 54.2333 127.316 56.5C126.449 58.7333 125.249 60.6166 123.716 62.15C122.183 63.65 120.349 64.7833 118.216 65.55C116.116 66.3167 113.849 66.7 111.416 66.7C109.049 66.7 106.816 66.3167 104.716 65.55C102.616 64.7833 100.783 63.65 99.216 62.15C97.6494 60.6166 96.416 58.7333 95.516 56.5C94.616 54.2333 94.166 51.6166 94.166 48.65C94.166 45.6833 94.6327 43.0833 95.566 40.85C96.4994 38.5833 97.7494 36.6833 99.316 35.15C100.916 33.6166 102.749 32.4666 104.816 31.7C106.916 30.9333 109.116 30.55 111.416 30.55C113.783 30.55 116.016 30.9333 118.116 31.7C120.216 32.4666 122.049 33.6166 123.616 35.15C125.183 36.6833 126.416 38.5833 127.316 40.85C128.216 43.0833 128.666 45.6833 128.666 48.65Z" fill="white"/>
<path d="M145.968 66.7C140.335 66.7 136.035 65.1333 133.068 62C130.135 58.8666 128.668 54.4166 128.668 48.65C128.668 45.7833 129.118 43.2333 130.018 41C130.918 38.7333 132.151 36.8333 133.718 35.3C135.285 33.7333 137.151 32.55 139.318 31.75C141.485 30.95 143.835 30.55 146.368 30.55C147.835 30.55 149.168 30.6666 150.368 30.9C151.568 31.1 152.618 31.35 153.518 31.65C154.418 31.9166 155.168 32.2 155.768 32.5C156.368 32.8 156.801 33.0333 157.068 33.2L154.818 39.5C153.751 38.9333 152.501 38.45 151.068 38.05C149.668 37.65 148.068 37.45 146.268 37.45C145.068 37.45 143.885 37.65 142.718 38.05C141.585 38.45 140.568 39.1 139.668 40C138.801 40.8666 138.101 42 137.568 43.4C137.035 44.8 136.768 46.5 136.768 48.5C136.768 50.1 136.935 51.6 137.268 53C137.635 54.3666 138.201 55.55 138.968 56.55C139.768 57.55 140.801 58.35 142.068 58.95C143.335 59.5166 144.868 59.8 146.668 59.8C147.801 59.8 148.818 59.7333 149.718 59.6C150.618 59.4666 151.418 59.3166 152.118 59.15C152.818 58.95 153.435 58.7333 153.968 58.5C154.501 58.2666 154.985 58.05 155.418 57.85L157.568 64.1C156.468 64.7666 154.918 65.3666 152.918 65.9C150.918 66.4333 148.601 66.7 145.968 66.7Z" fill="white"/>
<path d="M178.04 66C177.34 64.8666 176.507 63.65 175.54 62.35C174.607 61.0166 173.573 59.7 172.44 58.4C171.34 57.0666 170.19 55.8 168.99 54.6C167.79 53.3666 166.59 52.2833 165.39 51.35V66H157.59V31.35H165.39V44.45C167.423 42.3166 169.457 40.1 171.49 37.8C173.557 35.4666 175.473 33.3166 177.24 31.35H186.49C184.123 34.15 181.74 36.85 179.34 39.45C176.973 42.05 174.473 44.6666 171.84 47.3C174.607 49.6 177.273 52.3333 179.84 55.5C182.44 58.6666 184.923 62.1666 187.29 66H178.04Z" fill="white"/>
<path d="M186.77 66V31.35H210.17V37.9H194.57V44.7H208.42V51.1H194.57V59.45H211.32V66H186.77Z" fill="white"/>
<path d="M237.792 31.35V38H227.342V66H219.542V38H209.092V31.35H237.792Z" fill="white"/>
</svg>
