<svg width="367" height="145" viewBox="0 0 367 145" fill="none" xmlns="http://www.w3.org/2000/svg">
<path fill-rule="evenodd" clip-rule="evenodd" d="M14.1881 76.0121C16.5389 69.8331 20.8238 64.953 26.0939 61.7975C25.8004 59.0289 25.7109 56.2251 25.835 53.4076L10.7104 47.677C10.8617 46.7561 11.1071 45.8367 11.4519 44.9305C14.1649 37.7994 22.0303 34.1283 29.2132 36.5349C29.3034 36.2876 29.3955 36.0404 29.4894 35.7935C36.9417 16.2059 54.1121 3.14445 73.4434 0C85.8124 15.1555 89.9698 36.298 82.5176 55.8855C82.4236 56.1326 82.3281 56.3786 82.231 56.6235C82.4113 56.6838 82.5911 56.7478 82.7704 56.8158C90.092 59.5899 93.7739 67.762 90.9941 75.0686C90.6493 75.9747 90.2214 76.825 89.7222 77.6141L73.537 71.4816C71.7561 73.6714 69.8245 75.7094 67.7637 77.5859C69.6073 83.4368 69.567 89.9252 67.2162 96.1041C66.3875 98.2821 65.3186 100.299 64.0509 102.135C58.037 95.0105 50.1736 89.2703 40.8273 85.729C31.4811 82.1878 21.7816 81.2735 12.5447 82.62C12.8179 80.4066 13.3594 78.1901 14.1881 76.0121ZM72.7744 33.6531C70.5505 39.4984 63.9994 42.4379 58.1421 40.2186C52.2847 37.9993 49.3392 31.4616 51.5631 25.6163C53.787 19.771 60.3381 16.8316 66.1954 19.0509C72.0528 21.2702 74.9982 27.8079 72.7744 33.6531Z" fill="url(#paint0_linear_1_70)"/>
<path d="M18.282 145C18.3462 144.823 18.4119 144.646 18.4792 144.469C23.2605 131.902 34.0216 124.323 42.5147 127.541C46.2303 128.949 48.8963 132.19 50.3196 136.443C52.199 134.145 53.7456 131.51 54.8587 128.585C60.4183 113.972 53.0546 97.6276 38.4113 92.0793C23.768 86.531 7.39021 93.8796 1.83052 108.493C0.717488 111.418 0.12241 114.413 0 117.377C3.89315 115.138 8.04282 114.48 11.7584 115.887C20.2515 119.105 23.2605 131.902 18.4792 144.469C18.4119 144.646 18.3434 144.822 18.2738 144.997L18.282 145Z" fill="url(#paint1_linear_1_70)"/>
<path d="M120.344 46.8056C128.388 46.8056 134.55 48.2464 138.83 51.1282C143.11 53.9584 145.25 58.3839 145.25 64.4046C145.25 68.1611 144.373 71.2229 142.62 73.59C140.918 75.9057 138.443 77.7325 135.195 79.0704C136.278 80.4084 137.412 81.9521 138.598 83.7018C139.784 85.3999 140.944 87.201 142.079 89.105C143.265 90.9575 144.399 92.9129 145.482 94.9713C146.565 96.9782 147.57 98.9594 148.498 100.915H134.963C133.983 99.1652 132.977 97.3899 131.946 95.5888C130.966 93.7877 129.935 92.0381 128.852 90.34C127.821 88.6418 126.79 87.0466 125.758 85.5543C124.727 84.0105 123.696 82.6211 122.664 81.3861H116.709V100.915H104.642V48.195C107.272 47.6804 109.979 47.3202 112.764 47.1143C115.6 46.9085 118.127 46.8056 120.344 46.8056ZM121.04 57.0717C120.163 57.0717 119.364 57.0974 118.642 57.1489C117.972 57.2003 117.327 57.2518 116.709 57.3032V71.8147H120.112C124.65 71.8147 127.898 71.2487 129.858 70.1166C131.817 68.9845 132.797 67.0547 132.797 64.3274C132.797 61.703 131.791 59.8505 129.78 58.7698C127.821 57.6377 124.907 57.0717 121.04 57.0717Z" fill="url(#paint2_linear_1_70)"/>
<path d="M157.271 74.1304C157.271 76.7548 157.58 79.1219 158.199 81.2317C158.869 83.3415 159.797 85.1683 160.983 86.7121C162.221 88.2044 163.716 89.3623 165.47 90.1856C167.223 91.0089 169.234 91.4206 171.503 91.4206C173.72 91.4206 175.705 91.0089 177.458 90.1856C179.263 89.3623 180.759 88.2044 181.945 86.7121C183.182 85.1683 184.11 83.3415 184.729 81.2317C185.399 79.1219 185.735 76.7548 185.735 74.1304C185.735 71.5059 185.399 69.1388 184.729 67.029C184.11 64.8677 183.182 63.0409 181.945 61.5486C180.759 60.0048 179.263 58.8213 177.458 57.9979C175.705 57.1746 173.72 56.7629 171.503 56.7629C169.234 56.7629 167.223 57.2003 165.47 58.0751C163.716 58.8985 162.221 60.082 160.983 61.6258C159.797 63.1181 158.869 64.9449 158.199 67.1062C157.58 69.216 157.271 71.5574 157.271 74.1304ZM198.188 74.1304C198.188 78.7102 197.492 82.7498 196.099 86.249C194.759 89.6967 192.902 92.6042 190.53 94.9713C188.158 97.287 185.322 99.0366 182.022 100.22C178.773 101.404 175.267 101.995 171.503 101.995C167.842 101.995 164.387 101.404 161.138 100.22C157.89 99.0366 155.053 97.287 152.63 94.9713C150.206 92.6042 148.298 89.6967 146.906 86.249C145.514 82.7498 144.818 78.7102 144.818 74.1304C144.818 69.5505 145.54 65.5367 146.984 62.0889C148.427 58.5897 150.361 55.6566 152.785 53.2894C155.26 50.9223 158.096 49.147 161.293 47.9634C164.541 46.7799 167.945 46.1881 171.503 46.1881C175.164 46.1881 178.619 46.7799 181.867 47.9634C185.116 49.147 187.952 50.9223 190.376 53.2894C192.799 55.6566 194.707 58.5897 196.099 62.0889C197.492 65.5367 198.188 69.5505 198.188 74.1304Z" fill="url(#paint3_linear_1_70)"/>
<path d="M224.953 101.995C216.238 101.995 209.587 99.5769 204.997 94.7397C200.46 89.9026 198.191 83.0328 198.191 74.1304C198.191 69.7049 198.887 65.7683 200.279 62.3205C201.671 58.8213 203.579 55.8881 206.003 53.521C208.426 51.1024 211.314 49.2756 214.666 48.0406C218.017 46.8056 221.653 46.1881 225.572 46.1881C227.841 46.1881 229.903 46.3682 231.76 46.7284C233.616 47.0372 235.24 47.4231 236.632 47.8862C238.025 48.2979 239.185 48.7353 240.113 49.1984C241.041 49.6616 241.712 50.0218 242.124 50.2791L238.643 60.0048C236.993 59.13 235.06 58.3839 232.842 57.7664C230.677 57.1489 228.202 56.8401 225.417 56.8401C223.561 56.8401 221.73 57.1489 219.925 57.7664C218.172 58.3839 216.599 59.3873 215.207 60.7767C213.866 62.1147 212.784 63.8643 211.959 66.0256C211.133 68.1868 210.721 70.8113 210.721 73.8988C210.721 76.3688 210.979 78.6845 211.494 80.8458C212.062 82.9556 212.938 84.7824 214.124 86.3262C215.362 87.8699 216.96 89.105 218.92 90.0312C220.879 90.906 223.251 91.3434 226.036 91.3434C227.789 91.3434 229.362 91.2405 230.754 91.0347C232.146 90.8288 233.384 90.5973 234.467 90.34C235.55 90.0312 236.504 89.6967 237.329 89.3365C238.154 88.9763 238.901 88.6418 239.572 88.3331L242.898 97.9817C241.196 99.0108 238.798 99.9371 235.704 100.76C232.61 101.584 229.027 101.995 224.953 101.995Z" fill="url(#paint4_linear_1_70)"/>
<path d="M274.567 100.915C273.484 99.1652 272.195 97.287 270.699 95.28C269.255 93.2217 267.657 91.1891 265.904 89.1821C264.202 87.1238 262.423 85.1683 260.567 83.3158C258.71 81.4118 256.854 79.7394 254.998 78.2986V100.915H242.931V47.4231H254.998V67.6465C258.143 64.3531 261.289 60.9311 264.434 57.3804C267.631 53.7783 270.596 50.4592 273.329 47.4231H287.638C283.977 51.7457 280.29 55.9138 276.578 59.9277C272.917 63.9415 269.049 67.981 264.975 72.0463C269.255 75.597 273.381 79.8166 277.351 84.7052C281.373 89.5938 285.215 94.997 288.876 100.915H274.567Z" fill="url(#paint5_linear_1_70)"/>
<path d="M288.071 100.915V47.4231H324.27V57.5348H300.137V68.0325H321.563V77.9126H300.137V90.8031H326.049V100.915H288.071Z" fill="url(#paint6_linear_1_70)"/>
<path d="M367 47.4231V57.6892H350.834V100.915H338.768V57.6892H322.602V47.4231H367Z" fill="url(#paint7_linear_1_70)"/>
<path fill-rule="evenodd" clip-rule="evenodd" d="M14.1881 76.0121C16.5389 69.8331 20.8238 64.953 26.0939 61.7975C25.8004 59.0289 25.7109 56.2251 25.835 53.4076L10.7104 47.677C10.8617 46.7561 11.1071 45.8367 11.4519 44.9305C14.1649 37.7994 22.0303 34.1283 29.2132 36.5349C29.3034 36.2876 29.3955 36.0404 29.4894 35.7935C36.9417 16.2059 54.1121 3.14445 73.4434 0C85.8124 15.1555 89.9698 36.298 82.5176 55.8855C82.4236 56.1326 82.3281 56.3786 82.231 56.6235C82.4113 56.6838 82.5911 56.7478 82.7704 56.8158C90.092 59.5899 93.7739 67.762 90.9941 75.0686C90.6493 75.9747 90.2214 76.825 89.7222 77.6141L73.537 71.4816C71.7561 73.6714 69.8245 75.7094 67.7637 77.5859C69.6073 83.4368 69.567 89.9252 67.2162 96.1041C66.3875 98.2821 65.3186 100.299 64.0509 102.135C58.037 95.0105 50.1736 89.2703 40.8273 85.729C31.4811 82.1878 21.7816 81.2735 12.5447 82.62C12.8179 80.4066 13.3594 78.1901 14.1881 76.0121ZM72.7744 33.6531C70.5505 39.4984 63.9994 42.4379 58.1421 40.2186C52.2847 37.9993 49.3392 31.4616 51.5631 25.6163C53.787 19.771 60.3381 16.8316 66.1954 19.0509C72.0528 21.2702 74.9982 27.8079 72.7744 33.6531Z" fill="url(#paint8_linear_1_70)"/>
<path d="M18.282 145C18.3462 144.823 18.4119 144.646 18.4792 144.469C23.2605 131.902 34.0216 124.323 42.5147 127.541C46.2303 128.949 48.8963 132.19 50.3196 136.443C52.199 134.145 53.7456 131.51 54.8587 128.585C60.4183 113.972 53.0546 97.6276 38.4113 92.0793C23.768 86.531 7.39021 93.8796 1.83052 108.493C0.717488 111.418 0.12241 114.413 0 117.377C3.89315 115.138 8.04282 114.48 11.7584 115.887C20.2515 119.105 23.2605 131.902 18.4792 144.469C18.4119 144.646 18.3434 144.822 18.2738 144.997L18.282 145Z" fill="url(#paint9_linear_1_70)"/>
<path d="M120.344 46.8056C128.388 46.8056 134.55 48.2464 138.83 51.1282C143.11 53.9584 145.25 58.3839 145.25 64.4046C145.25 68.1611 144.373 71.2229 142.62 73.59C140.918 75.9057 138.443 77.7325 135.195 79.0704C136.278 80.4084 137.412 81.9521 138.598 83.7018C139.784 85.3999 140.944 87.201 142.079 89.105C143.265 90.9575 144.399 92.9129 145.482 94.9713C146.565 96.9782 147.57 98.9594 148.498 100.915H134.963C133.983 99.1652 132.977 97.3899 131.946 95.5888C130.966 93.7877 129.935 92.0381 128.852 90.34C127.821 88.6418 126.79 87.0466 125.758 85.5543C124.727 84.0105 123.696 82.6211 122.664 81.3861H116.709V100.915H104.642V48.195C107.272 47.6804 109.979 47.3202 112.764 47.1143C115.6 46.9085 118.127 46.8056 120.344 46.8056ZM121.04 57.0717C120.163 57.0717 119.364 57.0974 118.642 57.1489C117.972 57.2003 117.327 57.2518 116.709 57.3032V71.8147H120.112C124.65 71.8147 127.898 71.2487 129.858 70.1166C131.817 68.9845 132.797 67.0547 132.797 64.3274C132.797 61.703 131.791 59.8505 129.78 58.7698C127.821 57.6377 124.907 57.0717 121.04 57.0717Z" fill="url(#paint10_linear_1_70)"/>
<path d="M157.271 74.1304C157.271 76.7548 157.58 79.1219 158.199 81.2317C158.869 83.3415 159.797 85.1683 160.983 86.7121C162.221 88.2044 163.716 89.3623 165.47 90.1856C167.223 91.0089 169.234 91.4206 171.503 91.4206C173.72 91.4206 175.705 91.0089 177.458 90.1856C179.263 89.3623 180.759 88.2044 181.945 86.7121C183.182 85.1683 184.11 83.3415 184.729 81.2317C185.399 79.1219 185.735 76.7548 185.735 74.1304C185.735 71.5059 185.399 69.1388 184.729 67.029C184.11 64.8677 183.182 63.0409 181.945 61.5486C180.759 60.0048 179.263 58.8213 177.458 57.9979C175.705 57.1746 173.72 56.7629 171.503 56.7629C169.234 56.7629 167.223 57.2003 165.47 58.0751C163.716 58.8985 162.221 60.082 160.983 61.6258C159.797 63.1181 158.869 64.9449 158.199 67.1062C157.58 69.216 157.271 71.5574 157.271 74.1304ZM198.188 74.1304C198.188 78.7102 197.492 82.7498 196.099 86.249C194.759 89.6967 192.902 92.6042 190.53 94.9713C188.158 97.287 185.322 99.0366 182.022 100.22C178.773 101.404 175.267 101.995 171.503 101.995C167.842 101.995 164.387 101.404 161.138 100.22C157.89 99.0366 155.053 97.287 152.63 94.9713C150.206 92.6042 148.298 89.6967 146.906 86.249C145.514 82.7498 144.818 78.7102 144.818 74.1304C144.818 69.5505 145.54 65.5367 146.984 62.0889C148.427 58.5897 150.361 55.6566 152.785 53.2894C155.26 50.9223 158.096 49.147 161.293 47.9634C164.541 46.7799 167.945 46.1881 171.503 46.1881C175.164 46.1881 178.619 46.7799 181.867 47.9634C185.116 49.147 187.952 50.9223 190.376 53.2894C192.799 55.6566 194.707 58.5897 196.099 62.0889C197.492 65.5367 198.188 69.5505 198.188 74.1304Z" fill="url(#paint11_linear_1_70)"/>
<path d="M224.953 101.995C216.238 101.995 209.587 99.5769 204.997 94.7397C200.46 89.9026 198.191 83.0328 198.191 74.1304C198.191 69.7049 198.887 65.7683 200.279 62.3205C201.671 58.8213 203.579 55.8881 206.003 53.521C208.426 51.1024 211.314 49.2756 214.666 48.0406C218.017 46.8056 221.653 46.1881 225.572 46.1881C227.841 46.1881 229.903 46.3682 231.76 46.7284C233.616 47.0372 235.24 47.4231 236.632 47.8862C238.025 48.2979 239.185 48.7353 240.113 49.1984C241.041 49.6616 241.712 50.0218 242.124 50.2791L238.643 60.0048C236.993 59.13 235.06 58.3839 232.842 57.7664C230.677 57.1489 228.202 56.8401 225.417 56.8401C223.561 56.8401 221.73 57.1489 219.925 57.7664C218.172 58.3839 216.599 59.3873 215.207 60.7767C213.866 62.1147 212.784 63.8643 211.959 66.0256C211.133 68.1868 210.721 70.8113 210.721 73.8988C210.721 76.3688 210.979 78.6845 211.494 80.8458C212.062 82.9556 212.938 84.7824 214.124 86.3262C215.362 87.8699 216.96 89.105 218.92 90.0312C220.879 90.906 223.251 91.3434 226.036 91.3434C227.789 91.3434 229.362 91.2405 230.754 91.0347C232.146 90.8288 233.384 90.5973 234.467 90.34C235.55 90.0312 236.504 89.6967 237.329 89.3365C238.154 88.9763 238.901 88.6418 239.572 88.3331L242.898 97.9817C241.196 99.0108 238.798 99.9371 235.704 100.76C232.61 101.584 229.027 101.995 224.953 101.995Z" fill="url(#paint12_linear_1_70)"/>
<path d="M274.567 100.915C273.484 99.1652 272.195 97.287 270.699 95.28C269.255 93.2217 267.657 91.1891 265.904 89.1821C264.202 87.1238 262.423 85.1683 260.567 83.3158C258.71 81.4118 256.854 79.7394 254.998 78.2986V100.915H242.931V47.4231H254.998V67.6465C258.143 64.3531 261.289 60.9311 264.434 57.3804C267.631 53.7783 270.596 50.4592 273.329 47.4231H287.638C283.977 51.7457 280.29 55.9138 276.578 59.9277C272.917 63.9415 269.049 67.981 264.975 72.0463C269.255 75.597 273.381 79.8166 277.351 84.7052C281.373 89.5938 285.215 94.997 288.876 100.915H274.567Z" fill="url(#paint13_linear_1_70)"/>
<path d="M288.071 100.915V47.4231H324.27V57.5348H300.137V68.0325H321.563V77.9126H300.137V90.8031H326.049V100.915H288.071Z" fill="url(#paint14_linear_1_70)"/>
<path d="M367 47.4231V57.6892H350.834V100.915H338.768V57.6892H322.602V47.4231H367Z" fill="url(#paint15_linear_1_70)"/>
<defs>
<linearGradient id="paint0_linear_1_70" x1="-5.49341" y1="72.355" x2="472.515" y2="72.355" gradientUnits="userSpaceOnUse">
<stop stop-color="#0D6EFD"/>
<stop offset="1" stop-color="#0DCAF0"/>
</linearGradient>
<linearGradient id="paint1_linear_1_70" x1="-5.49341" y1="72.355" x2="472.515" y2="72.355" gradientUnits="userSpaceOnUse">
<stop stop-color="#0D6EFD"/>
<stop offset="1" stop-color="#0DCAF0"/>
</linearGradient>
<linearGradient id="paint2_linear_1_70" x1="-5.49341" y1="72.355" x2="472.515" y2="72.355" gradientUnits="userSpaceOnUse">
<stop stop-color="#0D6EFD"/>
<stop offset="1" stop-color="#0DCAF0"/>
</linearGradient>
<linearGradient id="paint3_linear_1_70" x1="-5.49341" y1="72.355" x2="472.515" y2="72.355" gradientUnits="userSpaceOnUse">
<stop stop-color="#0D6EFD"/>
<stop offset="1" stop-color="#0DCAF0"/>
</linearGradient>
<linearGradient id="paint4_linear_1_70" x1="-5.49341" y1="72.355" x2="472.515" y2="72.355" gradientUnits="userSpaceOnUse">
<stop stop-color="#0D6EFD"/>
<stop offset="1" stop-color="#0DCAF0"/>
</linearGradient>
<linearGradient id="paint5_linear_1_70" x1="-5.49341" y1="72.355" x2="472.515" y2="72.355" gradientUnits="userSpaceOnUse">
<stop stop-color="#0D6EFD"/>
<stop offset="1" stop-color="#0DCAF0"/>
</linearGradient>
<linearGradient id="paint6_linear_1_70" x1="-5.49341" y1="72.355" x2="472.515" y2="72.355" gradientUnits="userSpaceOnUse">
<stop stop-color="#0D6EFD"/>
<stop offset="1" stop-color="#0DCAF0"/>
</linearGradient>
<linearGradient id="paint7_linear_1_70" x1="-5.49341" y1="72.355" x2="472.515" y2="72.355" gradientUnits="userSpaceOnUse">
<stop stop-color="#0D6EFD"/>
<stop offset="1" stop-color="#0DCAF0"/>
</linearGradient>
<linearGradient id="paint8_linear_1_70" x1="-5.49341" y1="72.355" x2="472.515" y2="72.355" gradientUnits="userSpaceOnUse">
<stop stop-color="#0D6EFD"/>
<stop offset="1" stop-color="#0DCAF0"/>
</linearGradient>
<linearGradient id="paint9_linear_1_70" x1="-5.49341" y1="72.355" x2="472.515" y2="72.355" gradientUnits="userSpaceOnUse">
<stop stop-color="#0D6EFD"/>
<stop offset="1" stop-color="#0DCAF0"/>
</linearGradient>
<linearGradient id="paint10_linear_1_70" x1="-5.49341" y1="72.355" x2="472.515" y2="72.355" gradientUnits="userSpaceOnUse">
<stop stop-color="#0D6EFD"/>
<stop offset="1" stop-color="#0DCAF0"/>
</linearGradient>
<linearGradient id="paint11_linear_1_70" x1="-5.49341" y1="72.355" x2="472.515" y2="72.355" gradientUnits="userSpaceOnUse">
<stop stop-color="#0D6EFD"/>
<stop offset="1" stop-color="#0DCAF0"/>
</linearGradient>
<linearGradient id="paint12_linear_1_70" x1="-5.49341" y1="72.355" x2="472.515" y2="72.355" gradientUnits="userSpaceOnUse">
<stop stop-color="#0D6EFD"/>
<stop offset="1" stop-color="#0DCAF0"/>
</linearGradient>
<linearGradient id="paint13_linear_1_70" x1="-5.49341" y1="72.355" x2="472.515" y2="72.355" gradientUnits="userSpaceOnUse">
<stop stop-color="#0D6EFD"/>
<stop offset="1" stop-color="#0DCAF0"/>
</linearGradient>
<linearGradient id="paint14_linear_1_70" x1="-5.49341" y1="72.355" x2="472.515" y2="72.355" gradientUnits="userSpaceOnUse">
<stop stop-color="#0D6EFD"/>
<stop offset="1" stop-color="#0DCAF0"/>
</linearGradient>
<linearGradient id="paint15_linear_1_70" x1="-5.49341" y1="72.355" x2="472.515" y2="72.355" gradientUnits="userSpaceOnUse">
<stop stop-color="#0D6EFD"/>
<stop offset="1" stop-color="#0DCAF0"/>
</linearGradient>
</defs>
</svg>
